<svg xmlns="http://www.w3.org/2000/svg" viewBox="0 0 900 560" role="img" aria-label="Luxury wedding venue placeholder">
  <defs>
    <linearGradient id="sky" x1="0" x2="1" y1="0" y2="1">
      <stop stop-color="#fff4f7"/>
      <stop offset=".45" stop-color="#dfe9f1"/>
      <stop offset="1" stop-color="#f7d6df"/>
    </linearGradient>
    <linearGradient id="glass" x1="0" x2="1">
      <stop stop-color="#ffe7c3"/>
      <stop offset=".45" stop-color="#ffffff"/>
      <stop offset="1" stop-color="#f7b8c8"/>
    </linearGradient>
    <linearGradient id="gold" x1="0" x2="1">
      <stop stop-color="#8b5412"/>
      <stop offset=".5" stop-color="#f5c866"/>
      <stop offset="1" stop-color="#9b6116"/>
    </linearGradient>
    <filter id="softShadow" x="-20%" y="-20%" width="140%" height="140%">
      <feDropShadow dx="0" dy="14" stdDeviation="14" flood-color="#6d3f20" flood-opacity=".22"/>
    </filter>
  </defs>

  <rect width="900" height="560" fill="url(#sky)"/>
  <circle cx="745" cy="90" r="115" fill="#fff" opacity=".42"/>
  <circle cx="120" cy="100" r="80" fill="#fff" opacity=".35"/>

  <path d="M0 240 L130 115 L250 235 L370 80 L545 265 L665 135 L900 285 L900 560 L0 560Z" fill="#6c7f71" opacity=".92"/>
  <path d="M0 290 L160 160 L275 275 L380 128 L550 310 L670 180 L900 330 L900 560 L0 560Z" fill="#344b45" opacity=".86"/>
  <path d="M90 157 L130 115 L170 154 Z M343 117 L371 80 L403 120 Z M638 168 L666 135 L706 171 Z" fill="#f9f5f1" opacity=".85"/>

  <rect y="370" width="900" height="190" fill="#314436"/>
  <path d="M0 430 C150 390 220 420 340 390 C500 350 650 390 900 350 L900 560 L0 560Z" fill="#476847"/>
  <path d="M0 485 C140 455 250 487 390 458 C535 428 670 455 900 420 L900 560 L0 560Z" fill="#6d8b58"/>

  <g filter="url(#softShadow)">
    <rect x="145" y="230" width="610" height="190" rx="22" fill="#71421e"/>
    <rect x="170" y="200" width="560" height="190" rx="20" fill="url(#glass)" stroke="url(#gold)" stroke-width="6"/>
    <rect x="208" y="228" width="92" height="130" rx="7" fill="#4c3a35" opacity=".56"/>
    <rect x="323" y="228" width="92" height="130" rx="7" fill="#4c3a35" opacity=".50"/>
    <rect x="438" y="228" width="92" height="130" rx="7" fill="#4c3a35" opacity=".46"/>
    <rect x="553" y="228" width="92" height="130" rx="7" fill="#4c3a35" opacity=".50"/>
    <path d="M145 232 L450 105 L755 232 Z" fill="#2f2b29"/>
    <path d="M182 232 L450 126 L718 232 Z" fill="#a76b27"/>
    <rect x="125" y="393" width="650" height="42" rx="8" fill="#2b2624"/>
    <rect x="176" y="410" width="120" height="12" rx="6" fill="#f6cf80" opacity=".9"/>
    <rect x="612" y="410" width="108" height="12" rx="6" fill="#f6cf80" opacity=".9"/>
  </g>

  <g opacity=".92">
    <circle cx="662" cy="210" r="54" fill="#f05f82"/>
    <circle cx="662" cy="210" r="34" fill="#fff"/>
    <circle cx="662" cy="210" r="15" fill="#f05f82"/>
    <path d="M662 259 C690 228 716 199 662 156 C608 199 634 228 662 259Z" fill="#f05f82" opacity=".88"/>
  </g>

  <g opacity=".82">
    <circle cx="80" cy="390" r="7" fill="#ffd98f"/>
    <circle cx="105" cy="418" r="5" fill="#fff"/>
    <circle cx="792" cy="385" r="6" fill="#ffd98f"/>
    <circle cx="820" cy="425" r="5" fill="#fff"/>
    <circle cx="740" cy="455" r="9" fill="#ffd98f"/>
  </g>
</svg>
